HIERARCHY
ROOT hip
{
	OFFSET 0.000000 0.000000 0.000000 
	CHANNELS 6 Xposition Yposition Zposition Zrotation Yrotation Xrotation
	JOINT abdomen
	{
		OFFSET 0.000000 20.688101 -0.731520 
		CHANNELS 3 Zrotation Xrotation Yrotation
		JOINT chest
		{
			OFFSET 0.000000 11.704300 -0.487680 
			CHANNELS 3 Zrotation Xrotation Yrotation
			JOINT neck
			{
				OFFSET 0.000000 22.189400 -2.194560 
				CHANNELS 3 Zrotation Xrotation Yrotation
				JOINT head
				{
					OFFSET -0.243840 7.071330 1.219200 
					CHANNELS 3 Zrotation Xrotation Yrotation
					JOINT leftEye
					{
						OFFSET 4.145280 8.046740 8.046720 
						CHANNELS 3 Zrotation Xrotation Yrotation
						End Site
						{
							OFFSET 1.000000 0.000000 0.000000 
						}
					}
					JOINT rightEye
					{
						OFFSET -3.657600 8.046740 8.046720 
						CHANNELS 3 Zrotation Xrotation Yrotation
						End Site
						{
							OFFSET 1.000000 0.000000 0.000000 
						}
					}
				}
			}
			JOINT rCollar
			{
				OFFSET -2.682240 19.263399 -4.876800 
				CHANNELS 3 Zrotation Xrotation Yrotation
				JOINT rShldr
				{
					OFFSET -8.778240 -1.950730 1.463040 
					CHANNELS 3 Zrotation Xrotation Yrotation
					JOINT rForeArm
					{
						OFFSET -28.174200 -1.711500 0.487680 
						CHANNELS 3 Zrotation Xrotation Yrotation
						JOINT rHand
						{
							OFFSET -22.587900 0.773209 7.071360 
							CHANNELS 3 Zrotation Xrotation Yrotation
							JOINT rThumb1
							{
								OFFSET -1.219200 -0.487915 3.413760 
								CHANNELS 3 Zrotation Xrotation Yrotation
								JOINT rThumb2
								{
									OFFSET -3.370350 -0.524490 3.413760 
									CHANNELS 3 Zrotation Xrotation Yrotation
									End Site
									{
										OFFSET -1.782710 -1.182140 1.430490 
									}
								}
							}
							JOINT rIndex1
							{
								OFFSET -7.759470 0.938293 5.608320 
								CHANNELS 3 Zrotation Xrotation Yrotation
								JOINT rIndex2
								{
									OFFSET -2.540570 -0.884171 1.565380 
									CHANNELS 3 Zrotation Xrotation Yrotation
									End Site
									{
										OFFSET -1.625190 -0.234802 1.165020 
									}
								}
							}
							JOINT rMid1
							{
								OFFSET -8.247140 1.182130 3.413760 
								CHANNELS 3 Zrotation Xrotation Yrotation
								JOINT rMid2
								{
									OFFSET -3.101650 -0.590103 1.064700 
									CHANNELS 3 Zrotation Xrotation Yrotation
									End Site
									{
										OFFSET -2.485470 -0.328903 0.837420 
									}
								}
							}
							JOINT rRing1
							{
								OFFSET -8.828220 0.546677 1.516780 
								CHANNELS 3 Zrotation Xrotation Yrotation
								JOINT rRing2
								{
									OFFSET -2.609340 -0.819778 -0.019849 
									CHANNELS 3 Zrotation Xrotation Yrotation
									End Site
									{
										OFFSET -2.338420 -0.294052 0.168128 
									}
								}
							}
							JOINT rPinky1
							{
								OFFSET -8.272020 -0.047791 -0.458400 
								CHANNELS 3 Zrotation Xrotation Yrotation
								JOINT rPinky2
								{
									OFFSET -1.827340 -0.647385 -0.700984 
									CHANNELS 3 Zrotation Xrotation Yrotation
									End Site
									{
										OFFSET -1.692250 -0.517670 -0.607171 
									}
								}
							}
						}
					}
				}
			}
			JOINT lCollar
			{
				OFFSET 2.682240 19.263399 -4.876800 
				CHANNELS 3 Zrotation Xrotation Yrotation
				JOINT lShldr
				{
					OFFSET 8.778240 -1.950730 1.463040 
					CHANNELS 3 Zrotation Xrotation Yrotation
					JOINT lForeArm
					{
						OFFSET 28.174200 -1.711500 0.487680 
						CHANNELS 3 Zrotation Xrotation Yrotation
						JOINT lHand
						{
							OFFSET 22.587900 0.773209 7.071360 
							CHANNELS 3 Zrotation Xrotation Yrotation
							JOINT lThumb1
							{
								OFFSET 1.219200 -0.487915 3.413760 
								CHANNELS 3 Zrotation Xrotation Yrotation
								JOINT lThumb2
								{
									OFFSET 3.370350 -0.524490 3.413760 
									CHANNELS 3 Zrotation Xrotation Yrotation
									End Site
									{
										OFFSET 1.782710 -1.182140 1.430490 
									}
								}
							}
							JOINT lIndex1
							{
								OFFSET 7.759470 0.938293 5.608320 
								CHANNELS 3 Zrotation Xrotation Yrotation
								JOINT lIndex2
								{
									OFFSET 2.540570 -0.884171 1.565380 
									CHANNELS 3 Zrotation Xrotation Yrotation
									End Site
									{
										OFFSET 1.625190 -0.234802 1.165020 
									}
								}
							}
							JOINT lMid1
							{
								OFFSET 8.247140 1.182130 3.413760 
								CHANNELS 3 Zrotation Xrotation Yrotation
								JOINT lMid2
								{
									OFFSET 3.101650 -0.590103 1.064700 
									CHANNELS 3 Zrotation Xrotation Yrotation
									End Site
									{
										OFFSET 2.485470 -0.328903 0.837420 
									}
								}
							}
							JOINT lRing1
							{
								OFFSET 8.828220 0.546677 1.516780 
								CHANNELS 3 Zrotation Xrotation Yrotation
								JOINT lRing2
								{
									OFFSET 2.609340 -0.819778 -0.019849 
									CHANNELS 3 Zrotation Xrotation Yrotation
									End Site
									{
										OFFSET 2.338420 -0.294052 0.168128 
									}
								}
							}
							JOINT lPinky1
							{
								OFFSET 8.272020 -0.047791 -0.458400 
								CHANNELS 3 Zrotation Xrotation Yrotation
								JOINT lPinky2
								{
									OFFSET 1.827340 -0.647385 -0.700984 
									CHANNELS 3 Zrotation Xrotation Yrotation
									End Site
									{
										OFFSET 1.692250 -0.517670 -0.607171 
									}
								}
							}
						}
					}
				}
			}
		}
	}
	JOINT rButtock
	{
		OFFSET -8.778240 4.350840 1.219200 
		CHANNELS 3 Zrotation Xrotation Yrotation
		JOINT rThigh
		{
			OFFSET 0.000000 -1.706870 -2.194560 
			CHANNELS 3 Zrotation Xrotation Yrotation
			JOINT rShin
			{
				OFFSET 0.000000 -36.819901 0.731520 
				CHANNELS 3 Zrotation Xrotation Yrotation
				JOINT rFoot
				{
					OFFSET 0.731520 -45.110401 -5.120640 
					CHANNELS 3 Zrotation Xrotation Yrotation
					End Site
					{
						OFFSET -1.122100 -3.699640 12.103000 
					}
				}
			}
		}
	}
	JOINT lButtock
	{
		OFFSET 8.778240 4.350840 1.219200 
		CHANNELS 3 Zrotation Xrotation Yrotation
		JOINT lThigh
		{
			OFFSET 0.000000 -1.706870 -2.194560 
			CHANNELS 3 Zrotation Xrotation Yrotation
			JOINT lShin
			{
				OFFSET 0.000000 -36.819901 0.731520 
				CHANNELS 3 Zrotation Xrotation Yrotation
				JOINT lFoot
				{
					OFFSET -0.731520 -45.110401 -5.120640 
					CHANNELS 3 Zrotation Xrotation Yrotation
					End Site
					{
						OFFSET 1.122100 -3.699640 12.103000 
					}
				}
			}
		}
	}
}
MOTION
Frames: 6
Frame Time: 0.040000
0.000000 0.000000 -190.000000 0.000000 0.000000 0.000000 2.312700 10.799500 -1.498900 -0.010200 -0.011800 0.049900 -9.531900 3.682600 -4.158900 13.473700 -0.177200 -3.492500 0.000000 0.000000 0.000000 0.000000 0.000000 0.000000 0.000000 0.000000 0.000000 65.069199 22.819799 -0.637400 -14.259600 -7.550400 22.474001 3.746800 38.204498 10.230500 0.000000 0.000000 0.000000 0.000000 0.000000 0.000000 0.000000 0.000000 0.000000 0.023500 0.013400 0.013600 0.000000 0.000000 0.000000 0.029900 0.008500 0.015800 0.000000 0.000000 0.000000 0.015400 0.020800 0.035100 0.000000 0.000000 0.000000 0.027600 -0.022200 -0.029300 0.000000 0.000000 0.000000 -47.262001 20.822599 -22.257000 26.018801 -27.175800 -73.378998 0.072000 -8.480300 -3.193600 0.000000 0.000000 0.000000 0.000000 0.000000 0.000000 0.000000 0.000000 0.000000 -0.013200 0.006100 -0.005200 0.000000 0.000000 0.000000 -0.032800 0.030100 -0.004900 0.000000 0.000000 0.000000 -0.030000 0.004100 -0.032400 0.000000 0.000000 0.000000 -0.003800 -0.018400 0.013800 0.000000 0.000000 0.000000 -0.137700 -5.975000 2.836200 -1.954200 35.765598 -2.607800 -1.177300 -8.974700 -6.338000 0.000000 0.000000 0.000000 -0.482800 -11.251500 -11.170700 3.004900 26.285000 -0.045000 4.034100 -11.255100 5.160400 
0.000000 0.000000 -190.000000 0.000000 0.000000 0.000000 2.170900 11.888400 -2.121900 -0.010200 -0.011800 0.049900 -10.138900 3.570100 -4.158900 13.003700 -0.177200 -4.206100 0.000000 0.000000 0.000000 0.000000 0.000000 0.000000 0.000000 0.000000 0.000000 65.170403 29.278999 0.271500 -14.341200 -7.382200 22.217199 3.968300 34.039001 9.404700 0.000000 0.000000 0.000000 0.000000 0.000000 0.000000 0.000000 0.000000 0.000000 0.023500 0.013400 0.013600 0.000000 0.000000 0.000000 0.029900 0.008500 0.015800 0.000000 0.000000 0.000000 0.015400 0.020800 0.035100 0.000000 0.000000 0.000000 0.027600 -0.022200 -0.029300 0.000000 0.000000 0.000000 -48.889198 21.133301 -22.854900 25.730000 -23.645700 -65.107101 -0.997800 -8.280100 -3.722800 0.000000 0.000000 0.000000 0.000000 0.000000 0.000000 0.000000 0.000000 0.000000 -0.013200 0.006100 -0.005200 0.000000 0.000000 0.000000 -0.032800 0.030100 -0.004900 0.000000 0.000000 0.000000 -0.030000 0.004100 -0.032400 0.000000 0.000000 0.000000 -0.003800 -0.018400 0.013800 0.000000 0.000000 0.000000 1.197700 -8.402600 4.899400 -1.624800 36.852402 -2.564500 -1.061200 -8.771500 -6.253900 0.000000 0.000000 0.000000 1.073500 -13.969100 -12.532700 4.496000 35.931400 -0.444900 3.741600 -11.255300 5.179100 
0.000000 0.000000 -190.000000 0.000000 0.000000 0.000000 2.118600 11.682000 -2.126000 -0.010200 -0.011800 0.049900 -10.161900 3.595900 -4.158900 13.432900 -0.177200 -2.924200 0.000000 0.000000 0.000000 0.000000 0.000000 0.000000 0.000000 0.000000 0.000000 64.478996 27.439199 0.481400 -14.957300 -7.400000 21.835800 3.551300 38.114300 10.312900 0.000000 0.000000 0.000000 0.000000 0.000000 0.000000 0.000000 0.000000 0.000000 0.023500 0.013400 0.013600 0.000000 0.000000 0.000000 0.029900 0.008500 0.015800 0.000000 0.000000 0.000000 0.015400 0.020800 0.035100 0.000000 0.000000 0.000000 0.027600 -0.022200 -0.029300 0.000000 0.000000 0.000000 -46.258999 20.476200 -27.599001 25.978800 -28.182301 -75.070503 0.401100 -7.823200 -2.917400 0.000000 0.000000 0.000000 0.000000 0.000000 0.000000 0.000000 0.000000 0.000000 -0.013200 0.006100 -0.005200 0.000000 0.000000 0.000000 -0.032800 0.030100 -0.004900 0.000000 0.000000 0.000000 -0.030000 0.004100 -0.032400 0.000000 0.000000 0.000000 -0.003800 -0.018400 0.013800 0.000000 0.000000 0.000000 1.013700 -15.525000 3.453000 -1.513100 36.606201 -2.505800 -1.129600 -8.833400 -6.258400 0.000000 0.000000 0.000000 1.399800 -13.746800 -11.161500 4.406400 35.854801 -0.492400 3.800300 -11.263100 5.079900 
0.000000 0.000000 -190.000000 0.000000 0.000000 0.000000 2.215400 11.683200 -1.103600 -0.010200 -0.011800 0.049900 -9.737100 3.466900 -4.158900 13.194500 -0.177200 -1.783100 0.000000 0.000000 0.000000 0.000000 0.000000 0.000000 0.000000 0.000000 0.000000 64.879204 26.363899 -1.061200 -14.549700 -7.411500 22.373800 3.548500 38.908798 10.264800 0.000000 0.000000 0.000000 0.000000 0.000000 0.000000 0.000000 0.000000 0.000000 0.023500 0.013400 0.013600 0.000000 0.000000 0.000000 0.029900 0.008500 0.015800 0.000000 0.000000 0.000000 0.015400 0.020800 0.035100 0.000000 0.000000 0.000000 0.027600 -0.022200 -0.029300 0.000000 0.000000 0.000000 -47.118999 14.430000 -17.592400 25.700100 -27.808701 -70.203598 -0.342400 -7.117100 -4.081000 0.000000 0.000000 0.000000 0.000000 0.000000 0.000000 0.000000 0.000000 0.000000 -0.013200 0.006100 -0.005200 0.000000 0.000000 0.000000 -0.032800 0.030100 -0.004900 0.000000 0.000000 0.000000 -0.030000 0.004100 -0.032400 0.000000 0.000000 0.000000 -0.003800 -0.018400 0.013800 0.000000 0.000000 0.000000 -4.020700 -5.075500 -0.036500 -1.560500 27.635900 -2.667800 -1.534800 -9.222200 -7.295500 0.000000 0.000000 0.000000 1.250200 -13.425400 -14.337800 4.689000 37.518799 -0.471000 3.648000 -10.877900 5.315000 
0.000000 0.000000 -190.000000 0.000000 0.000000 0.000000 2.094600 11.689100 -1.043000 -0.010200 -0.011800 0.049900 -9.392800 3.452200 -4.158900 13.202100 -0.177200 -1.346700 0.000000 0.000000 0.000000 0.000000 0.000000 0.000000 0.000000 0.000000 0.000000 64.843300 27.319500 -1.104100 -14.541400 -7.343900 22.247601 3.528500 38.946400 10.260000 0.000000 0.000000 0.000000 0.000000 0.000000 0.000000 0.000000 0.000000 0.000000 0.023500 0.013400 0.013600 0.000000 0.000000 0.000000 0.029900 0.008500 0.015800 0.000000 0.000000 0.000000 0.015400 0.020800 0.035100 0.000000 0.000000 0.000000 0.027600 -0.022200 -0.029300 0.000000 0.000000 0.000000 -47.166698 13.951400 -17.371401 25.719801 -27.833401 -70.203102 -0.334500 -7.207700 -4.093600 0.000000 0.000000 0.000000 0.000000 0.000000 0.000000 0.000000 0.000000 0.000000 -0.013200 0.006100 -0.005200 0.000000 0.000000 0.000000 -0.032800 0.030100 -0.004900 0.000000 0.000000 0.000000 -0.030000 0.004100 -0.032400 0.000000 0.000000 0.000000 -0.003800 -0.018400 0.013800 0.000000 0.000000 0.000000 -4.054000 -4.191100 0.560700 -1.631600 27.483299 -2.673200 -1.547000 -9.252600 -7.322400 0.000000 0.000000 0.000000 1.036600 -13.436500 -14.161700 4.743100 37.680901 -0.482800 3.623800 -10.843500 5.268200 
0.000000 0.000000 -190.000000 0.000000 0.000000 0.000000 2.636400 11.315600 -0.807800 -0.010200 -0.011800 0.049900 -9.856100 1.315400 -4.158700 13.117700 -0.177200 1.866700 0.000000 0.000000 0.000000 0.000000 0.000000 0.000000 0.000000 0.000000 0.000000 65.038002 20.859100 -1.629100 -13.994900 -7.526600 23.205900 3.451800 40.466801 10.537000 0.000000 0.000000 0.000000 0.000000 0.000000 0.000000 0.000000 0.000000 0.000000 0.023500 0.013400 0.013600 0.000000 0.000000 0.000000 0.029900 0.008500 0.015800 0.000000 0.000000 0.000000 0.015400 0.020800 0.035100 0.000000 0.000000 0.000000 0.027600 -0.022200 -0.029300 0.000000 0.000000 0.000000 -47.210800 8.135900 -13.536900 25.432400 -24.876200 -55.075901 -1.181300 -6.158500 -5.120700 0.000000 0.000000 0.000000 0.000000 0.000000 0.000000 0.000000 0.000000 0.000000 -0.013200 0.006100 -0.005200 0.000000 0.000000 0.000000 -0.032800 0.030100 -0.004900 0.000000 0.000000 0.000000 -0.030000 0.004100 -0.032400 0.000000 0.000000 0.000000 -0.003800 -0.018400 0.013800 0.000000 0.000000 0.000000 1.286500 -5.108100 5.310800 -3.284400 35.223301 -2.685100 -1.113000 -9.250500 -6.130300 0.000000 0.000000 0.000000 -0.284500 -12.040600 -19.168400 5.311700 36.636600 -0.390100 3.768700 -10.829300 6.046700 
